<?xml version="1.0" encoding="UTF-8"?>
<svg xmlns="http://www.w3.org/2000/svg" width="24" height="24" viewBox="0 0 24 24" role="img" aria-label="Shioaji"><title>Shioaji</title><defs><mask id="m24_97" maskUnits="userSpaceOnUse" x="-6" y="-6" width="36" height="36"><polygon points="12.00,14.30 2.40,18.20 7.68,20.35 16.32,20.35 21.60,18.20" fill="#fff" stroke="#fff" stroke-width="0.4" stroke-linejoin="round"></polygon><polygon points="21.60,18.20 21.60,5.80 16.32,3.65 12.00,7.48 12.00,14.30" fill="#fff" stroke="#fff" stroke-width="0.4" stroke-linejoin="round"></polygon><polygon points="12.00,7.48 7.68,3.65 2.40,5.80 2.40,18.20 12.00,14.30" fill="#fff" stroke="#fff" stroke-width="0.4" stroke-linejoin="round"></polygon><polygon points="12.00,7.48 16.32,3.65 7.68,3.65" fill="#fff" stroke="#fff" stroke-width="0.4" stroke-linejoin="round"></polygon><line x1="12.00" y1="14.30" x2="2.40" y2="18.20" stroke="#000" stroke-width="1.6" stroke-linecap="round"></line><line x1="12.00" y1="14.30" x2="21.60" y2="18.20" stroke="#000" stroke-width="1.6" stroke-linecap="round"></line><line x1="12.00" y1="14.30" x2="12.00" y2="7.48" stroke="#000" stroke-width="1.6" stroke-linecap="round"></line><line x1="7.68" y1="3.65" x2="12.00" y2="7.48" stroke="#000" stroke-width="1.6" stroke-linecap="round"></line><line x1="12.00" y1="7.48" x2="16.32" y2="3.65" stroke="#000" stroke-width="1.6" stroke-linecap="round"></line></mask></defs><rect x="-6" y="-6" width="36" height="36" fill="currentColor" mask="url(#m24_97)"></rect></svg>